<svg width="40" height="40" viewBox="0 0 40 40" fill="none" xmlns="http://www.w3.org/2000/svg">
<path d="M17 26.5H23M15 23H25M13 10H27C28.1046 10 29 10.9949 29 12.2222V27.7778C29 29.0051 28.1046 30 27 30H13C11.8954 30 11 29.0051 11 27.7778V12.2222C11 10.9949 11.8954 10 13 10ZM19.9976 14.2119C19.2978 13.4328 18.1309 13.2232 17.2541 13.9367C16.3774 14.6501 16.2539 15.843 16.9425 16.6868C17.631 17.5306 19.9976 19.5 19.9976 19.5C19.9976 19.5 22.3642 17.5306 23.0527 16.6868C23.7413 15.843 23.6329 14.6426 22.7411 13.9367C21.8492 13.2307 20.6974 13.4328 19.9976 14.2119Z" stroke="white" stroke-width="2" stroke-linecap="round" stroke-linejoin="round"/>
</svg>
