<svg width="40" height="40" viewBox="0 0 40 40" fill="none" xmlns="http://www.w3.org/2000/svg">
<path d="M11.5 16H24M24 16V28.5M24 16L28.5 11.5M29 23.3373V11.8C29 11.52 29 11.38 28.9455 11.273C28.8976 11.1789 28.8211 11.1024 28.727 11.0545C28.62 11 28.48 11 28.2 11H16.6627C16.4182 11 16.2959 11 16.1808 11.0276C16.0787 11.0521 15.9812 11.0925 15.8917 11.1474C15.7908 11.2092 15.7043 11.2957 15.5314 11.4686L11.4686 15.5314C11.2957 15.7043 11.2092 15.7908 11.1474 15.8917C11.0925 15.9812 11.0521 16.0787 11.0276 16.1808C11 16.2959 11 16.4182 11 16.6627V28.2C11 28.48 11 28.62 11.0545 28.727C11.1024 28.8211 11.1789 28.8976 11.273 28.9455C11.38 29 11.52 29 11.8 29H23.3373C23.5818 29 23.7041 29 23.8192 28.9724C23.9213 28.9479 24.0188 28.9075 24.1083 28.8526C24.2092 28.7908 24.2957 28.7043 24.4686 28.5314L28.5314 24.4686C28.7043 24.2957 28.7908 24.2092 28.8526 24.1083C28.9075 24.0188 28.9479 23.9213 28.9724 23.8192C29 23.7041 29 23.5818 29 23.3373Z" stroke="white" stroke-width="2" stroke-linecap="round" stroke-linejoin="round"/>
</svg>
