<svg width="32" height="32" viewBox="0 0 32 32" fill="none" xmlns="http://www.w3.org/2000/svg">
<path d="M6.20024 19.2009C3.60834 20.3443 2.00024 21.9376 2.00024 23.7C2.00024 27.1794 8.26826 30 16.0002 30C23.7322 30 30.0002 27.1794 30.0002 23.7C30.0002 21.9376 28.3922 20.3443 25.8002 19.2009M24.4002 10.4C24.4002 16.0892 18.1002 18.8 16.0002 23C13.9002 18.8 7.60024 16.0892 7.60024 10.4C7.60024 5.76081 11.3611 2 16.0002 2C20.6394 2 24.4002 5.76081 24.4002 10.4ZM17.4002 10.4C17.4002 11.1732 16.7734 11.8 16.0002 11.8C15.227 11.8 14.6002 11.1732 14.6002 10.4C14.6002 9.6268 15.227 9 16.0002 9C16.7734 9 17.4002 9.6268 17.4002 10.4Z" stroke="white" stroke-width="2" stroke-linecap="round" stroke-linejoin="round"/>
</svg>
