<svg width="40" height="40" viewBox="0 0 40 40" fill="none" xmlns="http://www.w3.org/2000/svg">
<path d="M19 11.5H15.8C14.1198 11.5 13.2798 11.5 12.638 11.827C12.0735 12.1146 11.6146 12.5735 11.327 13.138C11 13.7798 11 14.6198 11 16.3V23.7C11 25.3802 11 26.2202 11.327 26.862C11.6146 27.4265 12.0735 27.8854 12.638 28.173C13.2798 28.5 14.1198 28.5 15.8 28.5H23.2C24.8802 28.5 25.7202 28.5 26.362 28.173C26.9265 27.8854 27.3854 27.4265 27.673 26.862C28 26.2202 28 25.3802 28 23.7V20.5M21 24.5H15M23 20.5H15M28.1213 11.3787C29.2929 12.5503 29.2929 14.4497 28.1213 15.6213C26.9497 16.7929 25.0503 16.7929 23.8787 15.6213C22.7071 14.4497 22.7071 12.5503 23.8787 11.3787C25.0503 10.2071 26.9497 10.2071 28.1213 11.3787Z" stroke="white" stroke-width="2" stroke-linecap="round" stroke-linejoin="round"/>
</svg>
